<?xml version="1.0" standalone="no"?>
<!DOCTYPE svg PUBLIC "-//W3C//DTD SVG 20010904//EN"
 "http://www.w3.org/TR/2001/REC-SVG-20010904/DTD/svg10.dtd">
<svg version="1.0" xmlns="http://www.w3.org/2000/svg"
 width="225.000000pt" height="225.000000pt" viewBox="0 0 225.000000 225.000000"
 preserveAspectRatio="xMidYMid meet">

<g transform="translate(0.000000,225.000000) scale(0.100000,-0.100000)"
fill="#000000" stroke="none">
<path d="M1045 2239 c-27 -6 -87 -17 -133 -25 -190 -33 -403 -146 -547 -289
-83 -82 -194 -229 -182 -241 2 -3 26 24 51 60 153 214 369 364 621 432 133 35
330 44 458 20 241 -46 429 -147 595 -320 204 -215 279 -390 307 -716 4 -41 9
-84 13 -95 13 -44 21 62 11 167 -40 454 -359 836 -803 963 -138 39 -312 59
-391 44z"/>
<path d="M955 2153 c-52 -14 -95 -66 -95 -118 0 -49 27 -95 65 -111 20 -8 44
-13 53 -10 9 2 29 7 45 10 15 4 27 11 27 17 0 6 -6 6 -19 -1 -29 -15 -73 -12
-100 6 -27 19 -51 71 -51 109 0 40 50 85 94 85 20 0 36 5 36 10 0 10 -21 11
-55 3z"/>
<path d="M1104 2124 c-29 -30 -34 -43 -34 -83 0 -80 55 -126 136 -114 18 3 45
-2 62 -11 41 -21 75 -20 102 2 28 23 29 63 2 90 -23 23 -62 38 -62 24 0 -5 9
-12 19 -15 30 -8 55 -52 42 -76 -16 -28 -45 -34 -80 -17 -17 9 -55 16 -86 16
-49 0 -60 4 -86 29 -24 24 -29 38 -29 76 0 38 5 52 30 77 26 26 36 30 75 26
25 -2 45 0 45 4 0 5 -23 8 -51 8 -46 0 -55 -4 -85 -36z"/>
<path d="M1340 2129 c56 -17 75 -53 44 -83 -8 -9 -11 -16 -5 -16 18 0 41 31
41 54 0 32 -21 47 -72 52 l-43 4 35 -11z"/>
<path d="M692 2062 c-9 -7 -9 -31 3 -122 8 -63 15 -115 15 -117 0 -2 5 -3 11
-3 6 0 8 15 4 43 -7 43 -6 43 34 62 l41 18 30 -28 c21 -20 33 -26 40 -19 7 7
-17 37 -75 92 -47 45 -87 82 -88 82 -1 0 -8 -4 -15 -8z m88 -109 c0 -14 -51
-36 -61 -26 -4 4 -11 34 -14 67 l-8 58 42 -44 c22 -25 41 -50 41 -55z"/>
<path d="M1540 2018 c-65 -35 -93 -143 -47 -185 25 -24 60 -43 77 -43 6 0 -8
15 -32 33 -35 27 -44 40 -46 69 -9 102 96 158 169 92 11 -10 19 -12 23 -5 19
30 -100 62 -144 39z"/>
<path d="M524 1896 c-37 -32 -75 -109 -60 -123 3 -3 21 4 40 16 34 21 76 90
76 124 0 25 -12 21 -56 -17z"/>
<path d="M1700 1905 c0 -45 31 -104 65 -125 42 -26 45 -25 45 8 0 41 -32 93
-73 119 l-37 23 0 -25z"/>
<path d="M1180 1891 c0 -6 10 -11 23 -11 12 0 40 -3 62 -6 30 -5 37 -4 29 5
-15 16 -114 27 -114 12z"/>
<path d="M885 1855 c-39 -18 -31 -18 25 -1 25 8 36 15 25 15 -11 0 -33 -6 -50
-14z"/>
<path d="M745 1797 c-59 -31 -104 -66 -171 -132 -78 -78 -98 -104 -137 -185
-119 -245 -122 -489 -11 -697 39 -73 55 -96 61 -90 2 2 -14 39 -36 81 -62 122
-85 219 -85 361 0 108 3 129 32 214 73 212 201 362 390 457 37 19 60 34 52 34
-8 0 -51 -19 -95 -43z"/>
<path d="M358 1783 c-33 -36 -49 -92 -42 -141 l7 -46 24 30 c31 39 46 98 36
141 -8 34 -9 34 -25 16z"/>
<path d="M1546 1759 c70 -48 141 -115 195 -182 45 -56 53 -40 11 19 -41 55
-156 160 -202 184 -65 33 -67 23 -4 -21z"/>
<path d="M1894 1755 c-9 -48 0 -110 21 -141 21 -32 32 -24 40 30 5 33 2 55
-13 89 -26 60 -39 66 -48 22z"/>
<path d="M453 1683 c-33 -18 -65 -54 -76 -85 -16 -44 83 -1 119 51 13 19 24
39 24 43 0 14 -34 9 -67 -9z"/>
<path d="M1755 1673 c11 -46 43 -81 90 -99 25 -9 48 -14 51 -11 10 10 -30 79
-57 99 -13 10 -39 22 -57 28 -33 9 -34 9 -27 -17z"/>
<path d="M146 1638 c-22 -34 -84 -192 -102 -262 -9 -34 -18 -112 -20 -174 -2
-62 -9 -122 -14 -133 -8 -15 -7 -19 3 -19 18 0 27 43 27 122 0 92 37 252 85
372 44 108 51 140 21 94z"/>
<path d="M197 1535 c-23 -49 -21 -155 4 -155 28 0 49 107 33 168 -9 31 -18 28
-37 -13z"/>
<path d="M1113 1540 c-18 -10 -90 -49 -160 -86 -70 -37 -132 -70 -138 -74 -5
-4 -56 -31 -113 -60 -56 -29 -99 -57 -95 -61 4 -4 40 -18 78 -32 l70 -25 3
-85 3 -85 -53 -9 c-50 -8 -53 -10 -59 -43 -13 -73 -25 -90 -64 -90 -43 0 -65
-33 -45 -69 9 -17 17 -21 43 -17 18 3 123 15 235 27 184 19 205 19 221 5 56
-51 147 -55 201 -9 l30 24 232 -24 c168 -18 237 -22 246 -14 7 5 12 24 10 41
-3 28 -7 31 -39 34 -40 3 -62 31 -73 93 -6 34 -9 36 -59 45 l-52 9 -3 83 c-3
82 -3 82 25 93 15 6 40 12 55 13 16 0 28 5 28 9 0 4 14 13 31 19 17 6 27 14
22 18 -4 4 -71 40 -148 80 -77 40 -144 76 -150 80 -12 8 -242 130 -247 130 -2
0 -17 -9 -35 -20z m196 -101 c86 -45 158 -84 161 -86 3 -3 -5 -13 -17 -23 -21
-17 -23 -27 -23 -112 0 -87 13 -148 33 -148 4 0 7 -7 7 -15 0 -12 -15 -15 -72
-16 l-73 -1 100 -24 c205 -49 198 -47 208 -77 5 -16 7 -30 4 -33 -2 -3 -72 2
-154 11 -82 9 -166 15 -188 13 -34 -3 -40 -7 -47 -33 -10 -42 -58 -69 -110
-62 -45 6 -71 26 -88 68 -15 35 -24 36 -231 14 -78 -8 -146 -12 -150 -8 -12
13 2 62 20 67 9 3 75 17 146 33 l130 28 -69 5 c-43 3 -71 10 -74 18 -2 6 3 12
11 12 19 0 27 43 27 154 0 81 -2 94 -22 110 -21 18 -21 19 138 101 87 45 163
83 168 84 5 0 79 -36 165 -80z"/>
<path d="M1135 1460 c-3 -5 1 -10 9 -10 9 0 16 5 16 10 0 6 -4 10 -9 10 -6 0
-13 -4 -16 -10z"/>
<path d="M920 1225 c0 -88 1 -95 20 -95 19 0 20 7 20 95 0 88 -1 95 -20 95
-19 0 -20 -7 -20 -95z"/>
<path d="M1009 1316 c-8 -8 3 -186 12 -186 5 0 9 43 9 95 0 83 -5 106 -21 91z"/>
<path d="M1090 1225 c0 -78 3 -95 15 -95 12 0 15 17 15 95 0 78 -3 95 -15 95
-12 0 -15 -17 -15 -95z"/>
<path d="M1178 1225 c-3 -85 -1 -95 15 -95 15 0 17 11 17 95 0 76 -3 95 -14
95 -12 0 -15 -21 -18 -95z"/>
<path d="M1270 1225 c0 -57 4 -95 10 -95 6 0 10 38 10 95 0 57 -4 95 -10 95
-6 0 -10 -38 -10 -95z"/>
<path d="M1349 1316 c-2 -2 -3 -45 -1 -95 3 -71 7 -91 18 -91 11 0 14 19 14
95 0 72 -3 95 -13 95 -8 0 -16 -2 -18 -4z"/>
<path d="M1078 1020 c19 -12 41 -38 51 -61 19 -42 31 -40 45 8 4 12 21 34 37
48 l31 25 -99 0 -98 0 33 -20z"/>
<path d="M2032 1517 c-16 -45 -15 -87 4 -133 l16 -38 13 24 c22 41 27 92 12
134 -18 51 -30 55 -45 13z"/>
<path d="M1805 1495 c4 -11 18 -48 30 -81 114 -306 60 -594 -154 -826 -52 -57
-58 -66 -27 -43 92 70 193 232 233 375 13 49 18 101 17 210 0 132 -2 152 -27
224 -16 44 -40 98 -54 120 -14 23 -22 32 -18 21z"/>
<path d="M335 1481 c-40 -24 -60 -48 -78 -93 -19 -44 -15 -45 37 -15 39 21 67
58 81 105 8 27 -1 28 -40 3z"/>
<path d="M1884 1473 c3 -10 8 -30 11 -44 8 -32 49 -74 88 -88 24 -9 27 -8 27
10 0 40 -39 98 -80 119 -48 24 -53 25 -46 3z"/>
<path d="M117 1285 c-20 -50 2 -155 38 -185 11 -9 15 -2 21 35 7 52 -6 107
-34 144 -17 21 -20 21 -25 6z"/>
<path d="M263 1248 c-37 -39 -53 -76 -53 -126 l0 -36 35 34 c38 37 59 89 53
133 l-3 28 -32 -33z"/>
<path d="M2108 1233 c-30 -44 -42 -90 -32 -127 6 -26 7 -26 27 -9 39 35 61
126 38 161 -5 9 -15 2 -33 -25z"/>
<path d="M1960 1210 c0 -54 10 -81 43 -117 30 -33 37 -29 37 22 0 52 -30 119
-60 135 -19 10 -20 8 -20 -40z"/>
<path d="M1641 1202 c-5 -59 44 -265 62 -259 19 6 34 39 19 44 -23 9 -43 35
-37 51 3 8 1 20 -5 27 -6 7 -16 43 -24 81 -8 38 -14 63 -15 56z"/>
<path d="M27 1014 c-13 -13 -7 -61 8 -74 13 -11 15 -8 14 16 -1 37 -12 67 -22
58z"/>
<path d="M260 965 c-24 -38 -30 -118 -13 -150 9 -15 11 -14 25 7 24 36 37 95
31 134 -8 48 -18 50 -43 9z"/>
<path d="M1951 959 c-18 -51 -13 -108 11 -147 l22 -36 13 44 c16 52 10 105
-16 144 l-18 28 -12 -33z"/>
<path d="M114 929 c8 -58 26 -91 67 -120 l29 -20 0 28 c0 49 -19 96 -52 130
-17 18 -36 33 -41 33 -6 0 -7 -21 -3 -51z"/>
<path d="M2088 917 c-20 -20 -42 -54 -47 -74 -21 -74 -10 -81 43 -28 34 34 52
83 44 121 -3 15 -9 12 -40 -19z"/>
<path d="M40 862 c0 -5 13 -47 29 -95 35 -102 86 -206 144 -292 48 -71 210
-235 232 -235 25 0 17 16 -28 53 -120 102 -207 227 -294 425 -58 132 -83 175
-83 144z"/>
<path d="M2122 661 c-62 -124 -106 -191 -182 -274 -33 -36 -60 -71 -60 -78 0
-24 120 104 176 187 68 102 144 264 124 264 -5 0 -32 -44 -58 -99z"/>
<path d="M345 706 c-8 -54 -3 -78 26 -126 20 -32 23 -33 30 -15 14 35 9 109
-9 144 -25 51 -39 50 -47 -3z"/>
<path d="M1851 701 c-25 -34 -37 -106 -24 -140 l10 -24 23 34 c18 24 25 50 28
96 5 71 -5 79 -37 34z"/>
<path d="M215 633 c20 -49 32 -61 76 -84 52 -26 63 -25 54 8 -11 44 -42 80
-85 97 -58 23 -62 21 -45 -21z"/>
<path d="M1975 631 c-45 -20 -58 -34 -85 -86 l-18 -36 21 7 c61 19 108 58 126
107 12 32 9 32 -44 8z"/>
<path d="M538 614 c25 -45 184 -175 198 -161 3 3 -100 94 -184 161 -24 19 -24
19 -14 0z"/>
<path d="M522 457 c5 -55 27 -95 70 -125 20 -15 21 -14 16 40 -5 58 -32 109
-70 129 -20 11 -20 9 -16 -44z"/>
<path d="M1667 464 c-34 -33 -57 -84 -57 -126 0 -27 14 -22 53 21 25 28 38 53
42 86 4 25 5 48 3 50 -2 3 -21 -12 -41 -31z"/>
<path d="M1455 428 c-55 -27 -86 -47 -70 -43 39 8 151 64 166 81 15 19 18 20
-96 -38z"/>
<path d="M791 415 c49 -27 174 -63 234 -69 l60 -6 -45 14 c-124 38 -256 76
-265 76 -5 -1 2 -7 16 -15z"/>
<path d="M412 358 c30 -40 82 -68 126 -68 37 0 38 2 15 36 -21 33 -83 64 -129
64 l-37 0 25 -32z"/>
<path d="M1745 365 c-22 -8 -53 -29 -70 -47 -25 -29 -27 -33 -11 -36 51 -10
130 30 157 79 8 16 6 19 -13 19 -13 -1 -41 -7 -63 -15z"/>
<path d="M835 346 c94 -41 56 -119 -70 -141 -71 -13 -72 -20 -9 -57 72 -43 94
-39 27 5 l-48 30 55 17 c71 21 97 38 111 71 13 34 -1 66 -37 79 -38 15 -64 11
-29 -4z"/>
<path d="M1361 314 c-28 -36 -26 -69 4 -100 19 -19 31 -23 48 -18 35 10 41 21
9 16 -22 -3 -33 2 -46 19 -24 35 -21 77 8 90 34 16 60 -2 91 -63 22 -44 24
-56 15 -82 -6 -17 -21 -39 -33 -48 -12 -10 -17 -18 -11 -18 6 0 21 12 35 26
58 62 12 204 -66 204 -24 0 -39 -7 -54 -26z"/>
<path d="M987 268 c-40 -31 -62 -154 -34 -191 22 -30 63 -32 91 -4 43 43 60
143 30 185 -17 25 -60 30 -87 10z m67 -14 c34 -34 10 -160 -36 -188 -14 -8
-22 -6 -37 9 -32 32 -32 112 -1 163 22 35 49 41 74 16z"/>
<path d="M1195 254 c-21 -18 -24 -22 -8 -14 29 14 37 -1 54 -108 7 -47 16 -79
21 -74 9 9 -19 200 -31 214 -4 4 -20 -4 -36 -18z"/>
<path d="M1736 210 c-178 -118 -337 -168 -566 -177 -160 -6 -270 11 -411 62
-39 14 -81 25 -95 25 -14 0 -27 6 -30 14 -7 20 -133 98 -145 90 -46 -28 228
-159 417 -199 98 -21 311 -24 414 -6 96 17 206 53 295 96 116 56 227 136 188
135 -5 0 -34 -18 -67 -40z"/>
</g>
</svg>
